# xmcd
#
# Track frame offsets: 
#        150
#        14530
#        32905
#        47712
#        64332
#        81087
#        95077
#        107857
#        125420
#        139312
#
# Disc length: 2118 seconds
#
# Revision: 2
# Processed by: cddbd v1.4PL0 Copyright (c) Steve Scherf et al.
# Submitted via: ExactAudioCopy v0.90b4
#
DISCID=9008440a
DTITLE=John Berry - Standing on the Edge
DYEAR=1995
DGENRE=
TTITLE0=Every Time My Heart Calls Your Name
TTITLE1=Standing on the Edge of Goodbye
TTITLE2=Prove Me Wrong
TTITLE3=I Think About It All the Time
TTITLE4=If I Had Any Pride Left At All
TTITLE5=Desperate Measures
TTITLE6=What Are We Fighting For
TTITLE7=There's No Cross That Love Won't Bear
TTITLE8=Ninety Miles an Hour
TTITLE9=I Never Lost You
EXTD=
EXTT0=
EXTT1=
EXTT2=
EXTT3=
EXTT4=
EXTT5=
EXTT6=
EXTT7=
EXTT8=
EXTT9=
PLAYORDER=
